<svg width="312" height="312" viewBox="0 0 312 312" fill="none" xmlns="http://www.w3.org/2000/svg">
<g clip-path="url(#clip0_759_517)">
<path d="M272.064 0H39.936C17.88 0 0 17.88 0 39.936V272.064C0 294.12 17.88 312 39.936 312H272.064C294.12 312 312 294.12 312 272.064V39.936C312 17.88 294.12 0 272.064 0Z" fill="black"/>
<path d="M45.7363 242.112V78.2296H82.1804V242.112H45.7363ZM73.5917 177.813V146.475H155.533V177.813H73.5917ZM73.5917 109.567V78.2296H159.247V109.567H73.5917Z" fill="white"/>
<path d="M184.953 211.786V79.6224H214.344V211.786H184.953ZM207.604 211.786V185.952H272.937V211.786H207.604Z" fill="#B4DAAA"/>
<path d="M272.063 224.64H184.703V242.112H272.063V224.64Z" fill="#677F61"/>
</g>
<defs>
<clipPath id="clip0_759_517">
<rect width="312" height="312" fill="white"/>
</clipPath>
</defs>
</svg>
