<svg width="881" height="258" viewBox="0 0 881 258" fill="none" xmlns="http://www.w3.org/2000/svg">
<path d="M14.0039 205.487V60.4131H46.3377V205.487H14.0039ZM38.7177 148.567V120.826H111.417V148.567H38.7177ZM38.7177 88.1538V60.4131H114.713V88.1538H38.7177ZM177.572 207.747C167.274 207.747 157.938 205.487 149.563 200.966C141.325 196.308 134.803 190.007 129.998 182.061C125.192 174.116 122.79 165.211 122.79 155.348C122.79 145.485 125.192 136.649 129.998 128.84C134.803 121.032 141.325 114.867 149.563 110.346C157.801 105.689 167.137 103.36 177.572 103.36C188.006 103.36 197.343 105.62 205.581 110.141C213.819 114.662 220.34 120.895 225.146 128.84C229.952 136.649 232.355 145.485 232.355 155.348C232.355 165.211 229.952 174.116 225.146 182.061C220.34 190.007 213.819 196.308 205.581 200.966C197.343 205.487 188.006 207.747 177.572 207.747ZM177.572 179.184C182.103 179.184 186.084 178.225 189.517 176.308C192.949 174.253 195.558 171.444 197.343 167.883C199.265 164.184 200.226 160.006 200.226 155.348C200.226 150.69 199.265 146.649 197.343 143.224C195.421 139.662 192.743 136.923 189.311 135.005C186.016 132.95 182.103 131.922 177.572 131.922C173.178 131.922 169.265 132.95 165.833 135.005C162.4 136.923 159.723 139.662 157.801 143.224C155.879 146.786 154.917 150.896 154.917 155.553C154.917 160.074 155.879 164.184 157.801 167.883C159.723 171.444 162.4 174.253 165.833 176.308C169.265 178.225 173.178 179.184 177.572 179.184ZM296.233 207.747C285.935 207.747 276.599 205.487 268.224 200.966C259.986 196.308 253.464 190.007 248.659 182.061C243.853 174.116 241.451 165.211 241.451 155.348C241.451 145.485 243.853 136.649 248.659 128.84C253.464 121.032 259.986 114.867 268.224 110.346C276.462 105.689 285.798 103.36 296.233 103.36C306.668 103.36 316.004 105.62 324.242 110.141C332.48 114.662 339.001 120.895 343.807 128.84C348.612 136.649 351.015 145.485 351.015 155.348C351.015 165.211 348.612 174.116 343.807 182.061C339.001 190.007 332.48 196.308 324.242 200.966C316.004 205.487 306.668 207.747 296.233 207.747ZM296.233 179.184C300.764 179.184 304.745 178.225 308.178 176.308C311.61 174.253 314.219 171.444 316.004 167.883C317.926 164.184 318.887 160.006 318.887 155.348C318.887 150.69 317.926 146.649 316.004 143.224C314.082 139.662 311.404 136.923 307.972 135.005C304.677 132.95 300.764 131.922 296.233 131.922C291.839 131.922 287.926 132.95 284.494 135.005C281.061 136.923 278.384 139.662 276.462 143.224C274.54 146.786 273.579 150.896 273.579 155.553C273.579 160.074 274.54 164.184 276.462 167.883C278.384 171.444 281.061 174.253 284.494 176.308C287.926 178.225 291.839 179.184 296.233 179.184ZM409.335 207.542C399.861 207.542 391.417 205.281 384.003 200.761C376.727 196.24 370.96 190.075 366.704 182.267C362.585 174.458 360.525 165.554 360.525 155.553C360.525 145.553 362.585 136.649 366.704 128.84C370.96 121.032 376.727 114.867 384.003 110.346C391.417 105.826 399.861 103.565 409.335 103.565C416.2 103.565 422.378 104.867 427.87 107.47C433.5 110.072 438.099 113.703 441.669 118.36C445.376 122.881 447.435 128.087 447.847 133.977V176.102C447.435 181.993 445.444 187.335 441.875 192.13C438.305 196.788 433.705 200.555 428.076 203.432C422.447 206.172 416.2 207.542 409.335 207.542ZM414.896 179.184C419.426 179.184 423.339 178.225 426.635 176.308C429.93 174.253 432.538 171.444 434.461 167.883C436.383 164.321 437.344 160.211 437.344 155.553C437.344 150.896 436.383 146.855 434.461 143.43C432.676 139.868 430.067 137.06 426.635 135.005C423.339 132.95 419.495 131.922 415.102 131.922C410.708 131.922 406.795 132.95 403.362 135.005C400.067 137.06 397.39 139.868 395.33 143.43C393.408 146.992 392.447 151.033 392.447 155.553C392.447 160.074 393.408 164.115 395.33 167.677C397.253 171.239 399.93 174.047 403.362 176.102C406.795 178.157 410.639 179.184 414.896 179.184ZM467 205.487H436.108V178.568L440.845 154.321L435.49 130.073V56.3034H467V205.487Z" fill="white"/>
<path d="M505.945 178.089V57.1938H532.89V178.089H505.945ZM526.712 178.089V154.458H586.608V178.089H526.712ZM599.745 178.089V94.8664H626.004V178.089H599.745ZM612.96 83.3934C608.842 83.3934 605.409 82.0234 602.663 79.2836C600.032 76.4296 598.716 73.0049 598.716 69.0093C598.716 64.8996 600.032 61.4748 602.663 58.735C605.409 55.9951 608.842 54.6252 612.96 54.6252C617.079 54.6252 620.455 55.9951 623.086 58.735C625.718 61.4748 627.034 64.8996 627.034 69.0093C627.034 73.0049 625.718 76.4296 623.086 79.2836C620.455 82.0234 617.079 83.3934 612.96 83.3934ZM699.587 178.089V130.655C699.587 126.317 698.214 122.835 695.468 120.21C692.836 117.47 689.461 116.1 685.342 116.1C682.482 116.1 679.965 116.728 677.791 117.984C675.617 119.125 673.9 120.838 672.642 123.121C671.383 125.29 670.754 127.801 670.754 130.655L660.628 125.689C660.628 119.182 662.058 113.474 664.919 108.565C667.779 103.657 671.727 99.8894 676.761 97.2637C681.91 94.5239 687.688 93.154 694.095 93.154C700.273 93.154 705.708 94.6381 710.399 97.6062C715.205 100.46 718.98 104.285 721.726 109.079C724.472 113.874 725.845 119.125 725.845 124.833V178.089H699.587ZM644.496 178.089V94.8664H670.754V178.089H644.496ZM796.085 178.089L766.909 134.936L795.913 94.8664H825.261L790.25 139.902L791.108 129.114L826.977 178.089H796.085ZM742.71 178.089V53.769H768.968V178.089H742.71Z" fill="white"/>
<path d="M826.08 189.504H505.717V205.487H826.08V189.504Z" fill="white"/>
</svg>
